<svg xmlns="http://www.w3.org/2000/svg" viewBox="0 0 50 50"><defs><style>.a{fill:#999;}</style></defs><title>consola-icon</title><path class="a" d="M3.44,48.52a2,2,0,0,1-2-2V3.44a2,2,0,0,1,3.92,0V46.56A2,2,0,0,1,3.44,48.52Z"/><path class="a" d="M3.44,39.7A2.94,2.94,0,0,1,.5,36.76V32.84a2.94,2.94,0,0,1,5.88,0v3.92A2.94,2.94,0,0,1,3.44,39.7Z"/><path class="a" d="M14.22,29.9A2.94,2.94,0,0,1,11.28,27V23a2.94,2.94,0,0,1,5.88,0V27A2.94,2.94,0,0,1,14.22,29.9Z"/><path class="a" d="M25,29.9A2.94,2.94,0,0,1,22.06,27V23a2.94,2.94,0,0,1,5.88,0V27A2.94,2.94,0,0,1,25,29.9Z"/><path class="a" d="M35.78,27A2.94,2.94,0,0,1,32.84,24V20.1a2.94,2.94,0,1,1,5.88,0V24A2.94,2.94,0,0,1,35.78,27Z"/><path class="a" d="M46.56,20.1a2.94,2.94,0,0,1-2.94-2.94V13.24a2.94,2.94,0,1,1,5.88,0v3.92A2.94,2.94,0,0,1,46.56,20.1Z"/><path class="a" d="M14.22,48.52a2,2,0,0,1-2-2V3.44a2,2,0,1,1,3.92,0V46.56A2,2,0,0,1,14.22,48.52Z"/><path class="a" d="M25,48.52a2,2,0,0,1-2-2V3.44a2,2,0,0,1,3.92,0V46.56A2,2,0,0,1,25,48.52Z"/><path class="a" d="M35.78,48.52a2,2,0,0,1-2-2V3.44a2,2,0,0,1,3.92,0V46.56A2,2,0,0,1,35.78,48.52Z"/><path class="a" d="M46.56,48.52a2,2,0,0,1-2-2V3.44a2,2,0,0,1,3.92,0V46.56A2,2,0,0,1,46.56,48.52Z"/></svg>