<svg id="Capa_1" data-name="Capa 1" xmlns="http://www.w3.org/2000/svg" xmlns:xlink="http://www.w3.org/1999/xlink" viewBox="0 0 48.29 48"><defs><style>.cls-1{fill:url(#Degradado_sin_nombre_7);}.cls-2{opacity:0.08;}</style><radialGradient id="Degradado_sin_nombre_7" cx="24" cy="24" r="24" gradientUnits="userSpaceOnUse"><stop offset="0.91" stop-color="#ebebeb"/><stop offset="1"/></radialGradient></defs><title>logo-sambura-relieve</title><circle class="cls-1" cx="24" cy="24" r="24"/><path d="M104.88,1a23,23,0,1,1-23,23,23,23,0,0,1,23-23m0-1a24,24,0,1,0,24,24,24,24,0,0,0-24-24h0Z" transform="translate(-80.88)"/><circle cx="24" cy="34" r="2"/><circle cx="14" cy="24" r="2"/><circle cx="34" cy="24" r="2"/><path d="M104.88,2a22,22,0,1,0,22,22A22,22,0,0,0,104.88,2Zm19.48,14.2-0.2-.5,0-.08C124.2,15.81,124.28,16,124.36,16.2ZM104.88,45a20.89,20.89,0,0,1-15.33-6.71c2.29-.83,11.42-4.41,12.81-9.15,0.8-2.75.47-5.17,0.11-7.73a20.59,20.59,0,0,1-.1-7.31c0.47-2.31,1.59-2.6,2.51-2.6s2,0.3,2.51,2.6a20.58,20.58,0,0,1-.1,7.31c-0.36,2.56-.69,5,0.11,7.73,1.39,4.74,10.52,8.32,12.81,9.15A20.89,20.89,0,0,1,104.88,45Zm16-7.51c-1.17-.41-11.23-4.07-12.56-8.63a16.65,16.65,0,0,1-.08-7.31,21.38,21.38,0,0,0,.09-7.65c-0.46-2.26-1.64-3.4-3.49-3.4s-3,1.14-3.49,3.4a21.38,21.38,0,0,0,.09,7.65,16.65,16.65,0,0,1-.08,7.31c-1.33,4.56-11.39,8.21-12.56,8.63a20.92,20.92,0,0,1-4.88-12l2.92-.73,3-.75-3-.75L84,22.52a20.87,20.87,0,0,1,.95-5L87.76,18l3.06,0.47L88.34,16.6,86,14.85a21,21,0,0,1,2.8-4.34L91.29,12l2.65,1.59-1.59-2.65L90.84,8.43A21.07,21.07,0,0,1,95,5.5l1.76,2.35,1.85,2.48L98.09,7.27l-0.45-3a20.81,20.81,0,0,1,5.63-1.23L104,6l0.75,3,0.75-3,0.73-2.93a20.9,20.9,0,0,1,4.9.88L110.7,6.84,110.24,9.9l1.84-2.48L113.84,5a21,21,0,0,1,4.5,2.87l-1.46,2.44L115.29,13l2.65-1.59,2.48-1.49a21.06,21.06,0,0,1,3.1,4.44l-2.42,1.78L118.6,18l3.06-.44,3-.44a20.83,20.83,0,0,1,1.12,5.43l-2.92.73-3,.75,3,0.75,2.92,0.73A20.92,20.92,0,0,1,120.92,37.49Z" transform="translate(-80.88)"/><g class="cls-2"><path d="M128.88,24c-0.95,13.22-10.75,24-24,24a24,24,0,0,1-24-24c0-13.25,5.67,5.94,18.63,8.75C130.44,39.47,129.8,11.1,128.88,24Z" transform="translate(-80.88)"/></g></svg>