<svg xmlns="http://www.w3.org/2000/svg" viewBox="0 0 50 50"><defs><style>.a{fill:#999;}</style></defs><title>mail-icon</title><path class="a" d="M32.84,35.78H17.16a4.9,4.9,0,0,1-4.9-4.9V19.12a4.9,4.9,0,0,1,4.9-4.9H32.84a4.9,4.9,0,0,1,4.9,4.9V30.88A4.9,4.9,0,0,1,32.84,35.78ZM17.16,16.18a2.94,2.94,0,0,0-2.94,2.94V30.88a2.94,2.94,0,0,0,2.94,2.94H32.84a2.94,2.94,0,0,0,2.94-2.94V19.12a2.94,2.94,0,0,0-2.94-2.94H17.16Z"/><path class="a" d="M25,26.31a4.88,4.88,0,0,1-3.46-1.43l-5.07-5.07a1,1,0,0,1,1.39-1.39l5.07,5.07a3,3,0,0,0,4.16,0l5.07-5.07a1,1,0,0,1,1.39,1.39l-5.07,5.07A4.88,4.88,0,0,1,25,26.31Z"/><path class="a" d="M25,49.32A24.49,24.49,0,0,1,20.92.69a1,1,0,0,1,.32,1.93,22.54,22.54,0,1,0,7.52,0A1,1,0,0,1,29.08.69,24.49,24.49,0,0,1,25,49.32Z"/></svg>