<svg xmlns="http://www.w3.org/2000/svg" viewBox="0 0 14 12.5"><defs><style>.a{fill:#fff;}</style></defs><title>master-icon</title><path class="a" d="M71.25,40.05V37a0.25,0.25,0,0,0-.5,0v3.05A1,1,0,0,0,70,41v1a1,1,0,0,0,.75.95V48a0.25,0.25,0,0,0,.5,0V42.95A1,1,0,0,0,72,42V41A1,1,0,0,0,71.25,40.05Z" transform="translate(-67 -35.75)"/><path class="a" d="M68.25,42.05V39a0.25,0.25,0,0,0-.5,0v3.05A1,1,0,0,0,67,43v1a1,1,0,0,0,.75.95V46a0.25,0.25,0,0,0,.5,0V44.95A1,1,0,0,0,69,44V43A1,1,0,0,0,68.25,42.05Z" transform="translate(-67 -35.75)"/><path class="a" d="M74.25,42.05V36a0.25,0.25,0,0,0-.5,0v6.05A1,1,0,0,0,73,43v1a1,1,0,0,0,.75.95V48a0.25,0.25,0,0,0,.5,0V44.95A1,1,0,0,0,75,44V43A1,1,0,0,0,74.25,42.05Z" transform="translate(-67 -35.75)"/><path class="a" d="M77.25,40.05V37a0.25,0.25,0,0,0-.5,0v3.05A1,1,0,0,0,76,41v1a1,1,0,0,0,.75.95V48a0.25,0.25,0,0,0,.5,0V42.95A1,1,0,0,0,78,42V41A1,1,0,0,0,77.25,40.05Z" transform="translate(-67 -35.75)"/><path class="a" d="M80.25,42.05V39a0.25,0.25,0,0,0-.5,0v3.05A1,1,0,0,0,79,43v1a1,1,0,0,0,.75.95V46a0.25,0.25,0,0,0,.5,0V44.95A1,1,0,0,0,81,44V43A1,1,0,0,0,80.25,42.05Z" transform="translate(-67 -35.75)"/></svg>