<svg xmlns="http://www.w3.org/2000/svg" viewBox="0 0 50 50"><defs><style>.a{fill:#999;}</style></defs><title>menu-icon</title><path class="a" d="M25,49.32A24.49,24.49,0,0,1,20.92.69a1,1,0,1,1,.33,1.93,22.54,22.54,0,1,0,7.51,0A1,1,0,0,1,28,1.5a1,1,0,0,1,1.13-.8A24.49,24.49,0,0,1,25,49.32Z"/><path class="a" d="M36.76,34.31H13.24a1.47,1.47,0,1,1,0-2.94H36.76A1.47,1.47,0,0,1,36.76,34.31Z"/><path class="a" d="M36.76,26.47H13.24a1.47,1.47,0,1,1,0-2.94H36.76A1.47,1.47,0,0,1,36.76,26.47Z"/><path class="a" d="M36.76,18.63H13.24a1.47,1.47,0,0,1,0-2.94H36.76A1.47,1.47,0,0,1,36.76,18.63Z"/></svg>