<svg xmlns="http://www.w3.org/2000/svg" viewBox="0 0 12.5 12.41"><defs><style>.a{fill:#999;}.b{fill:none;stroke:#999;stroke-linecap:round;stroke-miterlimit:10;stroke-width:0.5px;}</style></defs><title>menu-icon</title><path class="a" d="M23.63,80.23a6.25,6.25,0,0,1-1-12.41,0.25,0.25,0,1,1,.08.49,5.75,5.75,0,1,0,1.92,0A0.25,0.25,0,0,1,24.38,68a0.25,0.25,0,0,1,.29-0.21A6.25,6.25,0,0,1,23.63,80.23Z" transform="translate(-17.38 -67.82)"/><path class="b" d="M24.63,68.07" transform="translate(-17.38 -67.82)"/><path class="b" d="M22.63,68.07" transform="translate(-17.38 -67.82)"/><path class="a" d="M26.63,76.4h-6a0.38,0.38,0,0,1,0-.75h6A0.38,0.38,0,0,1,26.63,76.4Z" transform="translate(-17.38 -67.82)"/><path class="a" d="M26.63,74.4h-6a0.38,0.38,0,0,1,0-.75h6A0.38,0.38,0,0,1,26.63,74.4Z" transform="translate(-17.38 -67.82)"/><path class="a" d="M26.63,72.4h-6a0.38,0.38,0,0,1,0-.75h6A0.38,0.38,0,0,1,26.63,72.4Z" transform="translate(-17.38 -67.82)"/></svg>