<svg xmlns="http://www.w3.org/2000/svg" viewBox="0 0 50 50"><defs><style>.a{fill:#999;}</style></defs><title>flecha-icon</title><path class="a" d="M42.34,42.34A24.49,24.49,0,0,1,5.06,10.83,1,1,0,0,1,6.66,12,22.54,22.54,0,1,0,12,6.66a1,1,0,0,1-1.14-1.59A24.49,24.49,0,0,1,42.34,42.34Z"/><path class="a" d="M36.85,36.85a1,1,0,0,1-.69.29H19.53a1,1,0,0,1,0-2H35.18V19.53a1,1,0,1,1,2,0V36.16A1,1,0,0,1,36.85,36.85Z"/><path class="a" d="M25.77,31.31a1,1,0,0,1-1.39,0L5.17,12.1a1,1,0,1,1,1.39-1.39L25.77,29.93A1,1,0,0,1,25.77,31.31Z"/><path class="a" d="M31.31,25.77a1,1,0,0,1-1.39,0L10.71,6.55A1,1,0,1,1,12.1,5.17L31.31,24.38A1,1,0,0,1,31.31,25.77Z"/></svg>