<svg xmlns="http://www.w3.org/2000/svg" viewBox="0 0 25.12 13"><defs><style>.a{fill:#fff;}</style></defs><title>logo-sambura-type</title><path class="a" d="M19.92-32.27l-0.46.74s-1.47,2.35-3,4.41a4.29,4.29,0,0,1-3.71,1.72,0.17,0.17,0,0,0-.19.15,0.17,0.17,0,0,0,.15.2L13-25a4.56,4.56,0,0,0,3.7-1.88c1-1.37,2-2.86,2.55-3.71-0.2,1.26-.58,3.62-0.72,4.71a5.89,5.89,0,0,0-2.24.19,0.18,0.18,0,0,0-.1.23,0.17,0.17,0,0,0,.23.1,6.09,6.09,0,0,1,2.25-.16l0.17,0,0-.17c0.16-1.36.87-5.66,0.87-5.7Z" transform="translate(-12.55 37.11)"/><path class="a" d="M27.2-32.09A0.17,0.17,0,0,0,27-32.15,9.8,9.8,0,0,0,26-32c0.33-.94.54-1.51,0.55-1.53a0.18,0.18,0,0,0,0-.17,0.17,0.17,0,0,0-.17-0.06L25-33.49c0.33-1,.55-1.59.56-1.61a0.18,0.18,0,0,0,0-.19,0.18,0.18,0,0,0-.2,0,15.29,15.29,0,0,0-2.48,1.84,0.17,0.17,0,0,0,0,.25,0.17,0.17,0,0,0,.25,0,17.76,17.76,0,0,1,2-1.55A88.35,88.35,0,0,0,22.42-26a9.62,9.62,0,0,1-.22-3.56v-0.08q0-.12.06-0.24c0.45-1.5.52-2.35,0.2-2.52a0.67,0.67,0,0,0-.68.36c-1.12,1.39-2.93,4.13-2.48,6.93a1,1,0,0,0,.56,1h0c0.62,0,1.37-2.12,1.88-3.89a14,14,0,0,0,.5,2.84,0.18,0.18,0,0,0,.18.12,0.18,0.18,0,0,0,.16-0.14,66,66,0,0,1,2.25-7.93l1.27-.22c-0.35,1-1.52,4.24-2.52,8a0.17,0.17,0,0,0,.12.21h0a0.17,0.17,0,0,0,.17-0.13c0.67-2.52,1.41-4.82,1.94-6.35a7.34,7.34,0,0,1,.92-0.19c-1.07,3-1.94,6.42-1.95,6.45a0.18,0.18,0,0,0,.13.21h0a0.18,0.18,0,0,0,.17-0.13s0.93-3.69,2-6.69A0.17,0.17,0,0,0,27.2-32.09Zm-5.35,2.44c-0.72,2.8-1.61,5.17-2,5.18a1,1,0,0,1-.24-0.71c-0.44-2.77,1.54-5.57,2.41-6.65a1.11,1.11,0,0,1,.24-0.24A5.19,5.19,0,0,1,21.94-30Q21.89-29.82,21.85-29.65Z" transform="translate(-12.55 37.11)"/><path class="a" d="M31.83-31.06a0.17,0.17,0,0,0-.22.1C30.75-28.62,29-25.4,28.51-25.4h0a0.05,0.05,0,0,1,0,0c-0.29-.62,1.3-4,2.37-6a0.17,0.17,0,0,0-.07-0.23,0.17,0.17,0,0,0-.24.06,6,6,0,0,1-1.29,1.53c0.29-.9.3-1.43,0-1.66a0.73,0.73,0,0,0-.74,0c1.06-2.72,2.1-5,2.12-5.09a0.18,0.18,0,0,0-.09-0.23,0.18,0.18,0,0,0-.23.09c0,0.08-3.43,7.73-4.26,11.58a0.18,0.18,0,0,0,0,.13,0.17,0.17,0,0,0,.11.08h0c0.25,0,1.13-.31,2.69-4.07L29-29.52a4.62,4.62,0,0,0,.71-0.57c-0.83,1.69-1.9,4.12-1.58,4.8a0.4,0.4,0,0,0,.29.23H28.5c0.92,0,2.91-4.36,3.44-5.78A0.17,0.17,0,0,0,31.83-31.06Zm-5.35,5.37a48.91,48.91,0,0,1,1.85-5.58l0,0A0.84,0.84,0,0,1,29-31.51c0.05,0,.28.34-0.44,2.08C27.52-26.8,26.81-26,26.48-25.69Z" transform="translate(-12.55 37.11)"/><path class="a" d="M33.93-29.35a0.17,0.17,0,0,0,0-.23,0.17,0.17,0,0,0-.22-0.05,3.81,3.81,0,0,1-1.11.31H32.56a0.49,0.49,0,0,0,0-.54,0.42,0.42,0,0,0-.48,0c-0.52.19-.48,0.49-0.46,0.57A0.48,0.48,0,0,0,32-29l-0.35.59L31.41-28a30,30,0,0,1-1.82,2.61,0.18,0.18,0,0,0,0,.25,0.17,0.17,0,0,0,.25,0,30.55,30.55,0,0,0,1.85-2.64l0.23-.39L32.37-29a1.46,1.46,0,0,0,.3,0c0.22,0,.42-0.08.58-0.12A5.87,5.87,0,0,0,32.1-25a0.17,0.17,0,0,0,.17.16h0A0.17,0.17,0,0,0,32.44-25,5.63,5.63,0,0,1,33.93-29.35Zm-1.76,0A0.28,0.28,0,0,1,32-29.4a0.39,0.39,0,0,1,.24-0.16l0,0A2.06,2.06,0,0,1,32.18-29.32Z" transform="translate(-12.55 37.11)"/><path class="a" d="M37.46-25.48a2.41,2.41,0,0,1-1.87-.31c-0.66-.58-0.91-1.54-0.85-3.24a0.17,0.17,0,0,0-.11-0.17,0.18,0.18,0,0,0-.2,0c-0.1.11-2.36,2.71-1.42,4.21a0.46,0.46,0,0,0,.39.26h0.08c0.48-.11.86-1.16,1.08-2.17a2.6,2.6,0,0,0,.79,1.33,2.71,2.71,0,0,0,2.19.38,0.17,0.17,0,0,0,.13-0.21A0.18,0.18,0,0,0,37.46-25.48Zm-3.07-2.44c-0.2,1.66-.72,2.84-1,2.9a0.22,0.22,0,0,1-.1-0.1c-0.6-1,.5-2.64,1.07-3.4,0,0.2,0,.39,0,0.57v0Z" transform="translate(-12.55 37.11)"/><path class="a" d="M35.06-30.21s-0.62.51-.35,0.65S35.06-30.21,35.06-30.21Z" transform="translate(-12.55 37.11)"/></svg>