<svg id="Capa_1" data-name="Capa 1" xmlns="http://www.w3.org/2000/svg" viewBox="0 0 48 48"><defs><style>.cls-1{fill:#f2f2f2;}</style></defs><title>logo-sambura</title><path class="cls-1" d="M124.36,16.2c-0.08-.19-0.15-0.39-0.24-0.58l0,0.08Z" transform="translate(-80.88)"/><path class="cls-1" d="M107.4,29.14c-0.8-2.75-.47-5.17-0.11-7.73a20.58,20.58,0,0,0,.1-7.31c-0.47-2.31-1.59-2.6-2.51-2.6s-2,.3-2.51,2.6a20.59,20.59,0,0,0,.1,7.31c0.36,2.56.69,5-.11,7.73-1.39,4.74-10.52,8.32-12.81,9.15a20.88,20.88,0,0,0,30.66,0C117.92,37.46,108.78,33.88,107.4,29.14ZM104.88,36a2,2,0,1,1,2-2A2,2,0,0,1,104.88,36Z" transform="translate(-80.88)"/><path class="cls-1" d="M119.88,24l3-.75,2.92-.73a20.83,20.83,0,0,0-1.12-5.43l-3,.44L118.6,18l2.49-1.83,2.42-1.78a21.06,21.06,0,0,0-3.1-4.44l-2.48,1.49L115.29,13l1.59-2.65,1.46-2.44A21,21,0,0,0,113.84,5l-1.76,2.37L110.24,9.9l0.46-3.06L111.13,4a20.9,20.9,0,0,0-4.9-.88L105.5,6l-0.75,3L104,6l-0.73-2.92a20.81,20.81,0,0,0-5.63,1.23l0.45,3,0.47,3.06L96.71,7.85,95,5.5a21.07,21.07,0,0,0-4.12,2.93l1.51,2.52,1.59,2.65L91.29,12,88.8,10.51A21,21,0,0,0,86,14.85l2.34,1.75,2.48,1.85L87.76,18l-2.87-.44a20.87,20.87,0,0,0-.95,5l2.92,0.73,3,0.75-3,.75L84,25.48a20.92,20.92,0,0,0,4.88,12c1.17-.41,11.23-4.07,12.56-8.63a16.65,16.65,0,0,0,.08-7.31,21.38,21.38,0,0,1-.09-7.65c0.46-2.26,1.64-3.4,3.49-3.4s3,1.14,3.49,3.4a21.38,21.38,0,0,1-.09,7.65,16.65,16.65,0,0,0,.08,7.31c1.34,4.56,11.4,8.22,12.56,8.63a20.92,20.92,0,0,0,4.88-12l-2.92-.73Zm-25,2a2,2,0,1,1,2-2A2,2,0,0,1,94.88,26Zm20,0a2,2,0,1,1,2-2A2,2,0,0,1,114.88,26Z" transform="translate(-80.88)"/><path class="cls-1" d="M104.88,1a23,23,0,1,0,23,23A23,23,0,0,0,104.88,1Zm0,45a22,22,0,1,1,22-22A22,22,0,0,1,104.88,46Z" transform="translate(-80.88)"/><path d="M104.88,0a24,24,0,1,0,24,24A24,24,0,0,0,104.88,0Zm0,47a23,23,0,1,1,23-23A23,23,0,0,1,104.88,47Z" transform="translate(-80.88)"/><circle cx="24" cy="34" r="2"/><circle cx="14" cy="24" r="2"/><circle cx="34" cy="24" r="2"/><path d="M104.88,2a22,22,0,1,0,22,22A22,22,0,0,0,104.88,2Zm19.48,14.2-0.2-.5,0-.08C124.2,15.81,124.28,16,124.36,16.2ZM104.88,45a20.89,20.89,0,0,1-15.33-6.71c2.29-.83,11.42-4.41,12.81-9.15,0.8-2.75.47-5.17,0.11-7.73a20.59,20.59,0,0,1-.1-7.31c0.47-2.31,1.59-2.6,2.51-2.6s2,0.3,2.51,2.6a20.58,20.58,0,0,1-.1,7.31c-0.36,2.56-.69,5,0.11,7.73,1.39,4.74,10.52,8.32,12.81,9.15A20.89,20.89,0,0,1,104.88,45Zm16-7.51c-1.17-.41-11.23-4.07-12.56-8.63a16.65,16.65,0,0,1-.08-7.31,21.38,21.38,0,0,0,.09-7.65c-0.46-2.26-1.64-3.4-3.49-3.4s-3,1.14-3.49,3.4a21.38,21.38,0,0,0,.09,7.65,16.65,16.65,0,0,1-.08,7.31c-1.33,4.56-11.39,8.21-12.56,8.63a20.92,20.92,0,0,1-4.88-12l2.92-.73,3-.75-3-.75L84,22.52a20.87,20.87,0,0,1,.95-5L87.76,18l3.06,0.47L88.34,16.6,86,14.85a21,21,0,0,1,2.8-4.34L91.29,12l2.65,1.59-1.59-2.65L90.84,8.43A21.07,21.07,0,0,1,95,5.5l1.76,2.35,1.85,2.48L98.09,7.27l-0.45-3a20.81,20.81,0,0,1,5.63-1.23L104,6l0.75,3,0.75-3,0.73-2.93a20.9,20.9,0,0,1,4.9.88L110.7,6.84,110.24,9.9l1.84-2.48L113.84,5a21,21,0,0,1,4.5,2.87l-1.46,2.44L115.29,13l2.65-1.59,2.48-1.49a21.06,21.06,0,0,1,3.1,4.44l-2.42,1.78L118.6,18l3.06-.44,3-.44a20.83,20.83,0,0,1,1.12,5.43l-2.92.73-3,.75,3,0.75,2.92,0.73A20.92,20.92,0,0,1,120.92,37.49Z" transform="translate(-80.88)"/></svg>