<svg xmlns="http://www.w3.org/2000/svg" viewBox="0 0 49 48.65"><defs><style>.a{fill:#999;}.b{fill:none;stroke:#999;stroke-linecap:round;stroke-miterlimit:10;stroke-width:0.5px;}</style></defs><title>mail-icon</title><path class="a" d="M32.84,36.27H17.16a5.4,5.4,0,0,1-5.39-5.39V19.12a5.4,5.4,0,0,1,5.39-5.39H32.84a5.4,5.4,0,0,1,5.39,5.39V30.88A5.4,5.4,0,0,1,32.84,36.27ZM17.16,16.67a2.45,2.45,0,0,0-2.45,2.45V30.88a2.45,2.45,0,0,0,2.45,2.45H32.84a2.45,2.45,0,0,0,2.45-2.45V19.12a2.45,2.45,0,0,0-2.45-2.45H17.16Z" transform="translate(-0.5 -0.68)"/><path class="a" d="M25,26.31a4.87,4.87,0,0,1-3.46-1.43l-5.07-5.07a1,1,0,0,1,1.39-1.39l5.07,5.07a2.94,2.94,0,0,0,4.16,0l5.07-5.07a1,1,0,0,1,1.39,1.39l-5.07,5.07A4.87,4.87,0,0,1,25,26.31Z" transform="translate(-0.5 -0.68)"/><path class="a" d="M25,49.32A24.49,24.49,0,0,1,20.92.69a1,1,0,1,1,.33,1.93,22.54,22.54,0,1,0,7.51,0A1,1,0,1,1,29.08.69,24.49,24.49,0,0,1,25,49.32Z" transform="translate(-0.5 -0.68)"/><path class="b" d="M28.92,1.66" transform="translate(-0.5 -0.68)"/><path class="b" d="M21.08,1.66" transform="translate(-0.5 -0.68)"/></svg>