<svg xmlns="http://www.w3.org/2000/svg" viewBox="0 0 13.25 12.33"><defs><style>.a{fill:#fff;}</style></defs><title>mic-icon</title><path class="a" d="M73.63,43.07v-1.7a0.63,0.63,0,0,0-1.25,0v1.7a1,1,0,0,0-.37.76v3a1,1,0,0,0,.77,1,0.22,0.22,0,0,0,0,0v3a0.75,0.75,0,0,1-1.5,0v-6a1.25,1.25,0,0,0-2.5,0v7a0.75,0.75,0,0,1-1.5,0V42.9a1.25,1.25,0,0,0-2.5,0v2.54a2.24,2.24,0,0,0-4,1.4,0.25,0.25,0,0,0,.5,0,1.75,1.75,0,0,1,3.5,0V50.9a0.75,0.75,0,0,1-1.5,0V48a1.23,1.23,0,0,0,1-1.2,1.25,1.25,0,0,0-2.5,0,1.23,1.23,0,0,0,1,1.2V50.9a1.25,1.25,0,0,0,2.5,0v-8a0.75,0.75,0,0,1,1.5,0v8.94a1.25,1.25,0,0,0,2.5,0v-7a0.75,0.75,0,0,1,1.5,0v6a1.25,1.25,0,0,0,2.5,0v-3a0.22,0.22,0,0,0,0,0,1,1,0,0,0,.77-1v-3A1,1,0,0,0,73.63,43.07ZM62.25,46.83a0.75,0.75,0,1,1,1,.7v-0.7a0.25,0.25,0,0,0-.5,0v0.7A0.75,0.75,0,0,1,62.25,46.83Zm10.63-5.46a0.13,0.13,0,0,1,.25,0v1.48l-0.12,0-0.12,0V41.38Z" transform="translate(-60.75 -40.75)"/><path class="a" d="M63,44.08a0.25,0.25,0,0,0,.25-0.25v-1a0.25,0.25,0,0,0-.5,0v1A0.25,0.25,0,0,0,63,44.08Z" transform="translate(-60.75 -40.75)"/></svg>