<svg id="Capa_1" data-name="Capa 1" xmlns="http://www.w3.org/2000/svg" viewBox="0 0 39.33 40.29"><defs><style>.cls-1{fill:none;}.cls-2{fill:#fff;}</style></defs><title>music-icon</title><path class="cls-1" d="M316.67,28.09V15H315.6V28.09A2,2,0,0,1,313.9,30v6.41a2.27,2.27,0,0,0,4.48,0V30A2,2,0,0,1,316.67,28.09Z" transform="translate(-307.42 1)"/><path class="cls-1" d="M311.2,28.09V15h-2.78V36.42a2.27,2.27,0,0,0,4.48,0V30A2,2,0,0,1,311.2,28.09Z" transform="translate(-307.42 1)"/><path class="cls-1" d="M334.8,29a1.37,1.37,0,0,0,1,0,1,1,0,0,0,.7-0.88V15h-2.4V28.09A1,1,0,0,0,334.8,29Z" transform="translate(-307.42 1)"/><path class="cls-1" d="M340.28,29a1.37,1.37,0,0,0,1,0,1,1,0,0,0,.7-0.88V15h-2.4V28.09A1,1,0,0,0,340.28,29Z" transform="translate(-307.42 1)"/><path class="cls-1" d="M318.37,29a1.37,1.37,0,0,0,1,0,1,1,0,0,0,.7-0.88V15h-2.4V28.09A1,1,0,0,0,318.37,29Z" transform="translate(-307.42 1)"/><path class="cls-1" d="M312.9,29a1.37,1.37,0,0,0,1,0,1,1,0,0,0,.7-0.88V15h-2.4V28.09A1,1,0,0,0,312.9,29Z" transform="translate(-307.42 1)"/><path class="cls-1" d="M321.07,28.09a2,2,0,0,1-1.7,1.92v6.41a2.27,2.27,0,0,0,4.48,0V15h-2.78V28.09Z" transform="translate(-307.42 1)"/><path class="cls-1" d="M329.32,29a1.37,1.37,0,0,0,1,0,1,1,0,0,0,.7-0.88V15h-2.4V28.09A1,1,0,0,0,329.32,29Z" transform="translate(-307.42 1)"/><path class="cls-1" d="M338.58,28.09V15H337.5V28.09A2,2,0,0,1,335.8,30v6.41a2.27,2.27,0,0,0,4.48,0V30A2,2,0,0,1,338.58,28.09Z" transform="translate(-307.42 1)"/><path class="cls-1" d="M343,28.09a2,2,0,0,1-1.7,1.92v6.41a2.27,2.27,0,0,0,4.48,0V15H343V28.09Z" transform="translate(-307.42 1)"/><path class="cls-1" d="M333.1,28.09V15H332V28.09a2,2,0,0,1-1.7,1.92v6.41a2.27,2.27,0,0,0,4.48,0V30A2,2,0,0,1,333.1,28.09Z" transform="translate(-307.42 1)"/><path class="cls-1" d="M327.62,28.09V15h-2.78V36.42a2.27,2.27,0,0,0,4.48,0V30A2,2,0,0,1,327.62,28.09Z" transform="translate(-307.42 1)"/><path class="cls-2" d="M343,14H307.42V36.42a3.07,3.07,0,0,0,3.24,2.87,3.34,3.34,0,0,0,2.74-1.35,3.45,3.45,0,0,0,5.48,0,3.44,3.44,0,0,0,5.48,0,3.45,3.45,0,0,0,5.48,0,3.44,3.44,0,0,0,5.48,0,3.45,3.45,0,0,0,5.48,0,3.34,3.34,0,0,0,2.74,1.35,3.07,3.07,0,0,0,3.24-2.87V14H343Zm-24.6,1h1.7V28.09a1,1,0,0,1-.7.88,1.37,1.37,0,0,1-1,0,1,1,0,0,1-.7-0.88V15h0.7Zm-5.48,0h1.7V28.09a1,1,0,0,1-.7.88,1.37,1.37,0,0,1-1,0,1,1,0,0,1-.7-0.88V15h0.7Zm0,21.46a2.27,2.27,0,0,1-4.48,0V15h2.78V28.09A2,2,0,0,0,312.9,30v6.41Zm5.48,0a2.27,2.27,0,0,1-4.48,0V30a2,2,0,0,0,1.7-1.92V15h1.08V28.09a2,2,0,0,0,1.7,1.92v6.41Zm5.48,0a2.27,2.27,0,0,1-4.48,0V30a2,2,0,0,0,1.7-1.92V15h2.78V36.42ZM340.28,15H342V28.09a1,1,0,0,1-.7.88,1.37,1.37,0,0,1-1,0,1,1,0,0,1-.7-0.88V15h0.7Zm-5.48,0h1.7V28.09a1,1,0,0,1-.7.88,1.37,1.37,0,0,1-1,0,1,1,0,0,1-.7-0.88V15h0.7Zm-5.48,0H331V28.09a1,1,0,0,1-.7.88,1.37,1.37,0,0,1-1,0,1,1,0,0,1-.7-0.88V15h0.7Zm0,21.46a2.27,2.27,0,0,1-4.48,0V15h2.78V28.09a2,2,0,0,0,1.7,1.92v6.41Zm5.48,0a2.27,2.27,0,0,1-4.48,0V30a2,2,0,0,0,1.7-1.92V15h1.08V28.09A2,2,0,0,0,334.8,30v6.41Zm5.48,0a2.27,2.27,0,0,1-4.48,0V30a2,2,0,0,0,1.7-1.92V15h1.08V28.09a2,2,0,0,0,1.7,1.92v6.41Zm5.48,0a2.27,2.27,0,0,1-4.48,0V30a2,2,0,0,0,1.7-1.92V15h2.78V36.42Z" transform="translate(-307.42 1)"/><path class="cls-2" d="M346.75,15H307.42V1.5a2.5,2.5,0,0,1,2.5-2.5h34.33a2.5,2.5,0,0,1,2.5,2.5V15Zm-38.33-1h37.33V1.5a1.5,1.5,0,0,0-1.5-1.5H309.92a1.5,1.5,0,0,0-1.5,1.5V14Z" transform="translate(-307.42 1)"/><rect class="cls-2" x="0.5" y="12.75" width="38.33" height="1"/><path class="cls-2" d="M334.1,5.78h-4.78V1h4.78V5.78Zm-3.78-1h2.78V2h-2.78V4.78Z" transform="translate(-307.42 1)"/><path class="cls-2" d="M334.1,11.21h-4.78V6.73h4.78v4.48Zm-3.78-1h2.78V7.73h-2.78v2.48Z" transform="translate(-307.42 1)"/><path class="cls-2" d="M339.48,5.78h-4.78V1h4.78V5.78Zm-3.78-1h2.78V2h-2.78V4.78Z" transform="translate(-307.42 1)"/><path class="cls-2" d="M339.48,11.21h-4.78V6.73h4.78v4.48Zm-3.78-1h2.78V7.73h-2.78v2.48Z" transform="translate(-307.42 1)"/><path class="cls-2" d="M344.86,5.78h-4.78V1h4.78V5.78Zm-3.78-1h2.78V2h-2.78V4.78Z" transform="translate(-307.42 1)"/><path class="cls-2" d="M344.86,11.21h-4.78V6.73h4.78v4.48Zm-3.78-1h2.78V7.73h-2.78v2.48Z" transform="translate(-307.42 1)"/><path class="cls-2" d="M328.19,11.25H309.25V3a2,2,0,0,1,2-2h16.89V11.25Zm-17.94-1h16.94V2H311.3a1,1,0,0,0-1,1v7.21Z" transform="translate(-307.42 1)"/><rect class="cls-2" x="4.28" y="8.13" width="7.18" height="1"/><rect class="cls-2" x="4.28" y="6.29" width="7.18" height="1"/><rect class="cls-2" x="14.58" y="6.28" width="1" height="2.68"/><rect class="cls-2" x="16.43" y="6.28" width="1" height="2.68"/></svg>