<svg xmlns="http://www.w3.org/2000/svg" viewBox="0 0 50 50"><defs><style>.a{fill:#333;}</style></defs><title>phone-icon</title><path class="a" d="M25,49.28A24.2,24.2,0,0,1,11,44.76a0.75,0.75,0,0,1,.87-1.22,22.76,22.76,0,1,0-5.36-5.36A0.75,0.75,0,1,1,5.24,39,24.2,24.2,0,1,1,25,49.28Z"/><path class="a" d="M30.28,38.2a18.55,18.55,0,0,1-12.74-5.75C11.14,26.05,9.9,16.88,14.77,12a0.75,0.75,0,1,1,1.06,1.06c-4.29,4.29-3,12.51,2.77,18.33s14,7.06,18.33,2.77A0.75,0.75,0,1,1,38,35.23,10.68,10.68,0,0,1,30.28,38.2Z"/><path class="a" d="M37.47,29.91a0.75,0.75,0,0,1-.53-0.22l-5-5-2.24,2.24a4.67,4.67,0,0,1-6.6-6.6l2.24-2.24-5-5A0.75,0.75,0,1,1,21.38,12l6.07,6.07-3.3,3.3a3.17,3.17,0,0,0,0,4.48,3.24,3.24,0,0,0,4.48,0l3.3-3.3L38,28.63A0.75,0.75,0,0,1,37.47,29.91Z"/></svg>