<svg xmlns="http://www.w3.org/2000/svg" viewBox="0 0 12.5 10.5"><defs><style>.a{fill:#fff;}</style></defs><title>piano-icon</title><path class="a" d="M66,27.75A1.25,1.25,0,0,0,64.75,29v3a0.75,0.75,0,0,1-1.5,0V27a1.25,1.25,0,0,0-2.5,0v0.3a0.74,0.74,0,0,0-.5.7v3a0.74,0.74,0,0,0,.5.7V32a0.75,0.75,0,0,1-1.5,0V31.7a0.74,0.74,0,0,0,.5-0.7V26a0.75,0.75,0,0,0-1.5,0v5a0.74,0.74,0,0,0,.5.7V33c0,0.53,0,.75-0.75.75s-0.75-.22-0.75-0.75V31.7a0.74,0.74,0,0,0,.5-0.7V26a0.75,0.75,0,0,0-1.5,0v5a0.74,0.74,0,0,0,.5.7V33c0,0.55,0,.75-0.75.75s-0.75-.2-0.75-0.75V26a0.25,0.25,0,0,0-.5,0v7A1,1,0,0,0,56,34.25a1.3,1.3,0,0,0,1-.32,1.3,1.3,0,0,0,1,.32A1,1,0,0,0,59.25,33v0a1.22,1.22,0,0,0,.75.28A1.25,1.25,0,0,0,61.25,32V31.7a0.74,0.74,0,0,0,.5-0.7V28a0.74,0.74,0,0,0-.5-0.7V27a0.75,0.75,0,0,1,1.5,0v5a1.25,1.25,0,0,0,2.5,0V29a0.75,0.75,0,0,1,1.5,0v2a0.25,0.25,0,0,0,.5,0V29A1.25,1.25,0,0,0,66,27.75Z" transform="translate(-54.75 -23.75)"/><path class="a" d="M67,31.75a0.25,0.25,0,0,0-.25.25v1a0.25,0.25,0,0,0,.5,0V32A0.25,0.25,0,0,0,67,31.75Z" transform="translate(-54.75 -23.75)"/><path class="a" d="M55,25.25A0.25,0.25,0,0,0,55.25,25V24a0.25,0.25,0,0,0-.5,0v1A0.25,0.25,0,0,0,55,25.25Z" transform="translate(-54.75 -23.75)"/></svg>