<svg xmlns="http://www.w3.org/2000/svg" viewBox="0 0 50 50"><defs><style>.a{fill:#fff;}</style></defs><title>ubic-icon</title><path class="a" d="M25,49.37A24.49,24.49,0,0,1,20.92.73a1,1,0,1,1,.33,2,22.5,22.5,0,1,0,7.5,0,1,1,0,1,1,.33-2A24.49,24.49,0,0,1,25,49.37Z"/><path class="a" d="M25,42.72L24.11,41c-0.81-1.58-7.94-15.6-7.94-20a8.83,8.83,0,1,1,17.67,0c0,4.44-7.13,18.46-7.94,20Zm0-28.61A6.84,6.84,0,0,0,18.17,21c0,3,4.34,12.32,6.83,17.36,2.5-5,6.83-14.41,6.83-17.36A6.84,6.84,0,0,0,25,14.12Z"/><path class="a" d="M25,25.87A4.92,4.92,0,1,1,29.92,21,4.92,4.92,0,0,1,25,25.87ZM25,18A2.92,2.92,0,1,0,27.92,21,2.92,2.92,0,0,0,25,18Z"/></svg>